<svg width="84" height="84" viewBox="0 0 84 84" fill="none" xmlns="http://www.w3.org/2000/svg">
<path d="M62.5544 29.8329C62.5673 30.5616 62.2968 31.2667 61.8 31.7999L37.425 56.1749C36.8976 56.7016 36.1828 56.9974 35.4375 56.9974C34.6922 56.9974 33.9773 56.7016 33.45 56.1749L22.2 44.9249C21.7032 44.3917 21.4327 43.6865 21.4456 42.9579C21.4584 42.2293 21.7536 41.5341 22.2689 41.0188C22.7842 40.5035 23.4794 40.2083 24.208 40.1955C24.9367 40.1826 25.6418 40.4531 26.175 40.9499L35.4375 50.2124L57.825 27.8249C58.3581 27.3281 59.0633 27.0576 59.792 27.0705C60.5206 27.0833 61.2158 27.3785 61.7311 27.8938C62.2464 28.4091 62.5415 29.1043 62.5544 29.8329Z" fill="#2BA24C"/>
<path fill-rule="evenodd" clip-rule="evenodd" d="M0.75 42C0.75 19.2187 19.2188 0.75 42 0.75C64.7812 0.75 83.25 19.2187 83.25 42C83.25 64.7812 64.7812 83.25 42 83.25C19.2188 83.25 0.75 64.7812 0.75 42ZM16.8093 16.8093C10.1283 23.4903 6.375 32.5517 6.375 42C6.375 51.4483 10.1283 60.5097 16.8093 67.1907C23.4903 73.8716 32.5517 77.625 42 77.625C51.4483 77.625 60.5097 73.8716 67.1907 67.1907C73.8717 60.5097 77.625 51.4483 77.625 42C77.625 32.5517 73.8717 23.4903 67.1907 16.8093C60.5097 10.1283 51.4483 6.375 42 6.375C32.5517 6.375 23.4903 10.1283 16.8093 16.8093Z" fill="#2BA24C"/>
</svg>
