<svg width="24" height="24" viewBox="0 0 24 24" fill="none" xmlns="http://www.w3.org/2000/svg">
    <path d="M12.0142 1.95312C6.49136 1.95312 2.01416 6.43013 2.01416 11.9531C2.01416 17.4761 6.49136 21.9531 12.0142 21.9531C17.5372 21.9531 22.0142 17.4761 22.0142 11.9531C22.0142 6.43013 17.5372 1.95312 12.0142 1.95312ZM12.0142 3.95312C16.4322 3.95312 20.0142 7.53512 20.0142 11.9531C20.0142 16.3711 16.4322 19.9531 12.0142 19.9531C7.59586 19.9531 4.01416 16.3711 4.01416 11.9531C4.01416 7.53512 7.59586 3.95312 12.0142 3.95312ZM12.0142 6.95312C11.4622 6.95312 11.0142 7.40112 11.0142 7.95312V10.9531H8.01416C7.46186 10.9531 7.01416 11.4011 7.01416 11.9531C7.01416 12.5051 7.46186 12.9531 8.01416 12.9531H11.0142V15.9531C11.0142 16.5051 11.4622 16.9531 12.0142 16.9531C12.5662 16.9531 13.0142 16.5051 13.0142 15.9531V12.9531H16.0142C16.5662 12.9531 17.0142 12.5051 17.0142 11.9531C17.0142 11.4011 16.5662 10.9531 16.0142 10.9531H13.0142V7.95312C13.0142 7.40112 12.5662 6.95312 12.0142 6.95312Z"
          fill="#085727"/>
</svg>
