<svg width="21" height="17" viewBox="0 0 21 17" fill="none" xmlns="http://www.w3.org/2000/svg">
<path d="M4.01417 0.997803C1.80516 0.997803 0.0141602 2.7888 0.0141602 4.9978V12.9978C0.0141602 15.2068 1.80516 16.9978 4.01417 16.9978H16.0142C18.2232 16.9978 20.0142 15.2068 20.0142 12.9978V4.9978C20.0142 2.7888 18.2232 0.997803 16.0142 0.997803H4.01417ZM4.01417 2.9978H16.0142C17.0222 2.9978 17.8552 3.73781 17.9932 4.70781C17.0352 5.60081 15.6112 6.6968 14.6702 7.3728C12.5052 8.92779 10.6002 9.99779 10.0142 9.99779C9.42817 9.99779 7.52317 8.9288 5.35816 7.3728C4.41716 6.6968 3.49217 5.9658 2.79517 5.3728C2.49817 5.1198 2.27816 4.9158 2.10816 4.7478C2.24616 3.7778 3.00616 2.9978 4.01417 2.9978ZM2.02417 7.3518C4.56218 9.4048 8.28117 11.9858 10.0142 11.9978C11.1432 12.0058 13.0742 10.9278 15.0442 9.56679C16.0632 8.8618 17.1972 8.02479 18.0152 7.33779L18.0142 12.9978C18.0142 14.1028 17.1192 14.9978 16.0142 14.9978H4.01417C2.90916 14.9978 2.01416 14.1028 2.01416 12.9978L2.02417 7.3518Z" fill="black"/>
</svg>
