<svg width="16" height="14" viewBox="0 0 16 14" fill="none" xmlns="http://www.w3.org/2000/svg">
<path d="M5.38562 0.197319C3.52187 0.197319 2.01062 1.70835 2.01062 3.57232C2.01062 5.4363 3.52187 6.94732 5.38562 6.94732C7.24937 6.94732 8.76063 5.4363 8.76063 3.57232C8.76063 1.70835 7.24937 0.197319 5.38562 0.197319ZM5.38562 1.69732C6.42137 1.69732 7.26062 2.5368 7.26062 3.57232C7.26062 4.60785 6.42137 5.44725 5.38562 5.44732C4.34987 5.44732 3.51062 4.60785 3.51062 3.57232C3.51062 2.5368 4.34987 1.6974 5.38562 1.69732ZM13.2606 4.69732C12.8466 4.69732 12.5106 5.0331 12.5106 5.44732V6.19732H11.7606C11.3466 6.19732 11.0106 6.5331 11.0106 6.94732C11.0106 7.36155 11.3466 7.69732 11.7606 7.69732H12.5106V8.44732C12.5106 8.86155 12.8466 9.19733 13.2606 9.19733C13.6746 9.19733 14.0106 8.86155 14.0106 8.44732V7.69732H14.7606C15.1746 7.69732 15.5106 7.36155 15.5106 6.94732C15.5106 6.5331 15.1746 6.19732 14.7606 6.19732H14.0106V5.44732C14.0106 5.0331 13.6746 4.69732 13.2606 4.69732ZM2.80712 7.95517C1.43162 8.52277 0.51062 9.9144 0.51062 11.4473V12.9473C0.51062 13.3616 0.84662 13.6973 1.26062 13.6973H9.51063C9.92463 13.6973 10.2606 13.3616 10.2606 12.9473V11.4473C10.2606 9.95048 9.33438 8.5926 7.96413 8.00198C7.77063 7.91887 7.54637 7.91633 7.35437 8.00198C6.69062 8.29943 6.04412 8.44718 5.38562 8.44732C4.72937 8.44732 4.08062 8.29132 3.39362 7.97857C3.20462 7.89262 2.99912 7.8762 2.80712 7.95517ZM3.08912 9.47858C3.79712 9.74745 4.65887 9.94748 5.38562 9.94733C6.10637 9.94733 6.91787 9.78203 7.61237 9.52545C8.28887 9.91155 8.76063 10.6219 8.76063 11.4473V12.1973H2.01062V11.4473C2.01062 10.5738 2.49512 9.8262 3.08912 9.47858Z" fill="white"/>
</svg>
