<svg width="33" height="32" viewBox="0 0 33 32" fill="none" xmlns="http://www.w3.org/2000/svg">
<path d="M10.7479 8.03827C10.824 7.87667 10.9806 7.76794 11.1586 7.75306L19.9454 7.0184C20.1234 7.00351 20.2958 7.08473 20.3977 7.23145L25.4274 14.4737C25.5293 14.6204 25.5452 14.8104 25.469 14.972L21.7119 22.9489C21.6358 23.1105 21.4792 23.2192 21.3012 23.2341L12.5144 23.9688C12.3364 23.9837 12.1639 23.9025 12.062 23.7557L7.0324 16.5135C6.9305 16.3667 6.91462 16.1768 6.99074 16.0152L10.7479 8.03827Z" fill="#605DEC" fill-opacity="0.5" stroke="#605DEC"/>
<path d="M8.0925 11.5809C8.08305 11.4026 8.16949 11.2327 8.31925 11.1353L15.7872 6.27974C15.937 6.18237 16.1273 6.17229 16.2865 6.2533L24.2256 10.293C24.3848 10.374 24.4887 10.5338 24.4981 10.7122L24.9692 19.6074C24.9786 19.7858 24.8922 19.9557 24.7424 20.053L17.2745 24.9086C17.1247 25.006 16.9344 25.0161 16.7752 24.9351L8.83611 20.8954C8.6769 20.8144 8.57301 20.6546 8.56356 20.4762L8.0925 11.5809Z" fill="#605DEC" fill-opacity="0.5" stroke="#605DEC"/>
<path d="M19.72 12.3257C19.586 12.3451 19.4525 12.4093 19.365 12.5246L15.4567 17.6827C15.3413 17.8346 15.2027 17.8296 15.0744 17.6888L13.1714 15.6015C12.9771 15.3885 12.6325 15.371 12.4149 15.5633C12.1979 15.7555 12.1785 16.0945 12.3728 16.3075L14.2753 18.3949C14.8481 19.0225 15.7808 18.978 16.2968 18.2994L20.2236 13.1551C20.3982 12.9247 20.3495 12.5875 20.1168 12.4159C20.0001 12.3301 19.8535 12.3064 19.72 12.3257Z" fill="white"/>
</svg>
