<svg width="14" height="14" viewBox="0 0 14 14" fill="none" xmlns="http://www.w3.org/2000/svg">
    <path fill-rule="evenodd" clip-rule="evenodd"
          d="M13.9861 3.16583C13.923 1.29551 12.6691 0 10.8113 0H6.04793L5.90282 0.0026825C4.21842 0.0653518 3.05783 1.22064 2.89214 2.8944C1.15432 3.02883 0.0114746 4.35255 0.0114746 6.19779V10.6853C0.0114746 12.6357 1.28127 14 3.18824 14H7.95049C9.7171 14 10.9381 12.8286 11.108 11.1055C12.8485 10.9708 13.9886 9.64899 13.9886 7.80221V3.31467L13.9861 3.16583ZM11.1284 10.1465C12.2663 10.0176 12.9841 9.18673 13.033 7.93977L13.0357 7.80221V3.31467C13.0357 1.92266 12.2305 1.01298 10.9417 0.955744L10.8113 0.952875H6.04793C4.82886 0.952875 4.00962 1.69581 3.85223 2.88312H7.95104C9.85772 2.88312 11.1284 4.24772 11.1284 6.19779V10.1465ZM3.18769 3.836H7.95104C9.31567 3.836 10.1755 4.75939 10.1755 6.19779V10.6853C10.1755 12.1236 9.31527 13.0471 7.95049 13.0471H3.18824C1.82342 13.0471 0.96435 12.1241 0.96435 10.6853V6.19779C0.96435 4.76168 1.82693 3.836 3.18769 3.836Z"
          fill="#085727"/>
</svg>
