<svg width="24" height="24" viewBox="0 0 24 24" fill="none" xmlns="http://www.w3.org/2000/svg">
<rect x="0.7" y="0.7" width="22.6" height="22.6" rx="11.3" fill="#4080DB" stroke="white" stroke-width="1.4"/>
<path d="M5.39354 12.2089L5.44603 12.1264L8.61104 7.17512C8.65729 7.10263 8.76604 7.11012 8.80103 7.18886C9.32979 8.37386 9.78604 9.84762 9.57229 10.7651C9.48104 11.1426 9.23105 11.6539 8.94978 12.1264C8.91355 12.1951 8.87354 12.2626 8.83103 12.3276C8.81103 12.3576 8.77728 12.3751 8.74103 12.3751H5.48603C5.39853 12.3751 5.34729 12.2801 5.39354 12.2089Z" fill="white"/>
<path d="M19.5 13.1288V13.9125C19.5 13.9575 19.4725 13.9975 19.4325 14.015C19.1875 14.12 18.3488 14.505 18 14.99C17.11 16.2288 16.43 18 14.91 18H8.56874C6.32126 18 4.5 16.1725 4.5 13.9175V13.845C4.5 13.785 4.54874 13.7363 4.60874 13.7363H8.14376C8.21374 13.7363 8.26499 13.8013 8.25876 13.87C8.23375 14.1 8.27626 14.335 8.385 14.5487C8.59499 14.975 9.03 15.2413 9.49999 15.2413H11.25V13.875H9.51999C9.43125 13.875 9.37876 13.7725 9.43001 13.7C9.44875 13.6712 9.47001 13.6413 9.4925 13.6075C9.65626 13.375 9.89 13.0138 10.1225 12.6025C10.2813 12.325 10.435 12.0288 10.5587 11.7313C10.5838 11.6775 10.6037 11.6225 10.6237 11.5687C10.6575 11.4737 10.6925 11.385 10.7175 11.2963C10.7425 11.2212 10.7625 11.1425 10.7825 11.0687C10.8413 10.8162 10.8662 10.5487 10.8662 10.2713C10.8662 10.1625 10.8613 10.0488 10.8513 9.94001C10.8462 9.82126 10.8313 9.70249 10.8162 9.58375C10.8062 9.47875 10.7875 9.37499 10.7675 9.26625C10.7425 9.1075 10.7075 8.95001 10.6675 8.79124L10.6537 8.73126C10.6237 8.62249 10.5988 8.51876 10.5638 8.41001C10.465 8.06874 10.3513 7.73625 10.2312 7.42501C10.1875 7.30125 10.1375 7.18251 10.0875 7.06376C10.0138 6.88501 9.93874 6.72251 9.87 6.56875C9.83501 6.49875 9.80501 6.43499 9.775 6.37C9.74125 6.29625 9.70626 6.22249 9.67125 6.15251C9.64626 6.09876 9.6175 6.04875 9.59749 5.99875L9.38375 5.60375C9.35375 5.55 9.40375 5.48625 9.46249 5.5025L10.8 5.86499H10.8038L10.8087 5.86626L10.985 5.91499L11.1788 5.97001L11.25 5.98999V5.195C11.25 4.81124 11.5575 4.5 11.9375 4.5C12.1275 4.5 12.3 4.5775 12.4238 4.70374C12.5475 4.83001 12.625 5.0025 12.625 5.195V6.37501L12.7675 6.41499C12.7788 6.41876 12.79 6.42375 12.8 6.43125C12.835 6.4575 12.885 6.49624 12.9487 6.54376C12.9988 6.58374 13.0525 6.6325 13.1175 6.68251C13.2462 6.78624 13.4 6.92 13.5688 7.07376C13.6137 7.1125 13.6575 7.1525 13.6975 7.19251C13.915 7.39501 14.1588 7.6325 14.3913 7.895C14.4563 7.96876 14.52 8.04375 14.585 8.12249C14.65 8.2025 14.7188 8.28124 14.7787 8.36001C14.8575 8.46501 14.9425 8.57375 15.0163 8.68751C15.0513 8.74126 15.0913 8.79625 15.125 8.85001C15.22 8.99374 15.3038 9.14251 15.3838 9.29126C15.4175 9.36 15.4525 9.435 15.4825 9.50875C15.5712 9.7075 15.6413 9.91 15.6862 10.1125C15.7 10.1563 15.71 10.2038 15.715 10.2463V10.2563C15.73 10.3162 15.735 10.38 15.74 10.445C15.76 10.6525 15.75 10.86 15.705 11.0687C15.6862 11.1575 15.6613 11.2412 15.6313 11.33C15.6013 11.415 15.5712 11.5038 15.5325 11.5875C15.4575 11.7612 15.3687 11.935 15.2638 12.0975C15.23 12.1575 15.19 12.2213 15.15 12.2813C15.1062 12.345 15.0613 12.405 15.0212 12.4638C14.9663 12.5388 14.9075 12.6175 14.8475 12.6875C14.7938 12.7613 14.7388 12.835 14.6788 12.9C14.595 12.9988 14.515 13.0925 14.4312 13.1825C14.3813 13.2413 14.3275 13.3013 14.2725 13.355C14.2188 13.415 14.1637 13.4687 14.1137 13.5188C14.03 13.6025 13.96 13.6675 13.9012 13.7213L13.7638 13.8475C13.7438 13.865 13.7175 13.875 13.69 13.875H12.625V15.2413H13.965C14.265 15.2413 14.55 15.135 14.78 14.94C14.8588 14.8713 15.2025 14.5738 15.6087 14.125C15.6225 14.11 15.64 14.0988 15.66 14.0938L19.3613 13.0238C19.43 13.0038 19.5 13.0563 19.5 13.1288Z" fill="white"/>
</svg>
