<svg width="19" height="19" viewBox="0 0 19 19" fill="none" xmlns="http://www.w3.org/2000/svg">
<path d="M5.49072 0.92981C3.43872 0.92981 0.990723 3.37781 0.990723 5.42981C0.990723 7.61181 3.02973 11.4068 5.27172 13.6488C5.47772 13.8538 6.06672 14.4428 6.27172 14.6488C8.51372 16.8908 12.3087 18.9298 14.4907 18.9298C16.5427 18.9298 18.9907 16.4818 18.9907 14.4298C18.9907 12.3778 16.5427 9.92981 14.4907 9.92981C14.0807 9.92981 13.6587 10.0928 12.8657 10.4608C12.7927 10.4948 12.1827 10.7938 12.0217 10.8678C10.9057 10.5608 9.39372 9.0278 9.05272 7.8678C9.12972 7.6978 9.4307 7.11681 9.4597 7.05481C9.8427 6.24281 9.99071 5.84481 9.99071 5.42981C9.99071 3.37781 7.54271 0.92981 5.49072 0.92981ZM5.49072 2.92981C6.43871 2.92981 7.99071 4.48181 7.99071 5.42981C7.99071 5.40481 7.85672 5.76682 7.64672 6.21082C7.61872 6.27082 7.28671 6.91382 7.20971 7.08582C6.97371 7.61382 6.94472 7.7798 7.02172 8.1488C7.44172 10.1498 9.82072 12.5408 11.8027 12.8988C12.1597 12.9628 12.2477 12.9308 12.8027 12.6798C12.9587 12.6098 13.6397 12.3058 13.7097 12.2738C14.1497 12.0688 14.5117 11.9298 14.4907 11.9298C15.4387 11.9298 16.9907 13.4818 16.9907 14.4298C16.9907 15.3778 15.4387 16.9298 14.4907 16.9298C12.9287 16.9298 9.6117 15.1138 7.70971 13.2108C7.50371 13.0058 6.91471 12.4168 6.70971 12.2108C4.80671 10.3088 2.99072 6.99181 2.99072 5.42981C2.99072 4.48181 4.54272 2.92981 5.49072 2.92981Z" fill="black"/>
</svg>
