<svg width="21" height="20" viewBox="0 0 21 20" fill="none" xmlns="http://www.w3.org/2000/svg">
    <path d="M10.0142 0.998535C4.5162 0.998535 0.0141925 4.99953 0.0141925 9.99853C0.0141925 11.6215 0.498193 13.1935 1.38919 14.5605C1.53119 14.7795 1.65521 15.2745 1.57621 15.7485C1.49621 16.2385 1.24019 16.7175 0.733188 16.9985C0.575187 17.0865 0.0191925 17.3305 0.0141925 17.9985C0.00919248 18.6665 0.585193 18.9955 1.01419 18.9985C2.0292 19.0065 8.2672 18.9985 10.0142 18.9985C15.5122 18.9985 20.0142 14.9975 20.0142 9.99853C20.0142 4.99953 15.5122 0.998535 10.0142 0.998535ZM10.0142 2.99853C14.4572 2.99853 18.0142 6.16053 18.0142 9.99853C18.0142 13.8365 14.4572 16.9985 10.0142 16.9985C8.6862 16.9985 5.6382 16.9985 3.2642 16.9985C3.7232 16.0455 3.6892 14.5325 3.0452 13.4675C2.3992 12.3975 2.0142 11.2275 2.0142 9.99853C2.0142 6.16053 5.5712 2.99853 10.0142 2.99853Z"
          fill="#085727"/>
</svg>
