<svg width="20" height="17" viewBox="0 0 20 17" fill="none" xmlns="http://www.w3.org/2000/svg">
<path d="M2.9989 0.90625C1.342 0.90625 -0.00109863 2.24935 -0.00109863 3.90625V13.6562C-0.00109863 15.4511 1.454 16.9062 3.2489 16.9062H16.7489C18.5438 16.9062 19.9989 15.4511 19.9989 13.6562V5.90625C19.9989 5.35395 19.5512 4.90625 18.9989 4.90625H17.9989V1.90625C17.9989 1.35395 17.5512 0.90625 16.9989 0.90625H2.9989ZM2.9989 2.90625H15.9989V4.90625H2.9989C2.4466 4.90625 1.9989 4.45855 1.9989 3.90625C1.9989 3.35395 2.4466 2.90625 2.9989 2.90625ZM2.9989 6.90625H17.9989V13.6562C17.9989 14.3467 17.4392 14.9062 16.7489 14.9062H3.2489C2.5585 14.9062 1.9989 14.3467 1.9989 13.6562L2.0047 6.73035C2.0047 6.73035 2.3627 6.90935 2.9989 6.90625ZM14.9989 9.90625C14.4466 9.90625 13.9989 10.354 13.9989 10.9062C13.9989 11.4585 14.4466 11.9062 14.9989 11.9062C15.5512 11.9062 15.9989 11.4585 15.9989 10.9062C15.9989 10.354 15.5512 9.90625 14.9989 9.90625Z" fill="#605DEC"/>
</svg>
