<svg width="26" height="22" viewBox="0 0 26 22" fill="none" xmlns="http://www.w3.org/2000/svg">
<path fill-rule="evenodd" clip-rule="evenodd" d="M2.46664 3.06892L3.70635 9.87531H11.3556C12.0063 9.87531 12.5338 10.379 12.5338 11.0003C12.5338 11.6216 12.0063 12.1253 11.3556 12.1253H3.70635L2.46664 18.9316L21.8485 11.0003L2.46664 3.06892ZM1.51946 11.0003L0.0662199 3.02155C-0.0512628 2.37654 0.167322 1.71727 0.652162 1.25433C1.26135 0.672657 2.18006 0.503712 2.97193 0.827757L24.0264 9.44355C24.6785 9.71044 25.1014 10.3228 25.1014 11.0003C25.1014 11.6778 24.6785 12.2902 24.0264 12.5571L2.97193 21.1728C2.18006 21.4969 1.26135 21.3279 0.652162 20.7463C0.167322 20.2833 -0.0512631 19.624 0.0662199 18.979L1.51946 11.0003Z" fill="#BDBDBD"/>
</svg>
