<svg width="19" height="18" viewBox="0 0 19 18" fill="none" xmlns="http://www.w3.org/2000/svg">
<path d="M4 0C1.7909 0 -9.99958e-05 1.7909 4.1874e-09 4V14C4.1874e-09 16.2091 1.7909 18 4 18H14C15.552 18 17 16.5523 17 15L16.996 13.837C18.204 13.3927 19 12.2678 19 11V7C19 5.7322 18.178 4.5727 17.006 4.1849L17 3C17 1.4477 15.552 0 14 0H4ZM4 2H14C14.448 2 15 2.5523 15 3V4H12C10.343 4 9 5.3431 9 7V11C9 12.6569 10.343 14 12 14H15V15C15 15.4477 14.448 16 14 16H4C2.8954 16 1.9999 15.1046 2 14V4C2 2.8954 2.8954 2 4 2ZM12 6H16C16.552 6 17 6.4477 17 7V11C17 11.5523 16.552 12 16 12H12C11.448 12 11 11.5523 11 11V7C11 6.4477 11.448 6 12 6ZM14 8C13.448 8 13 8.4477 13 9C13 9.5523 13.448 10 14 10C14.552 10 15 9.5523 15 9C15 8.4477 14.552 8 14 8Z" fill="#424242"/>
</svg>
