<svg width="939" height="966" viewBox="0 0 939 966" fill="none" xmlns="http://www.w3.org/2000/svg">
<path d="M348.159 65.4847L379.041 70.4032L358.781 97.7578L348.159 65.4847Z" fill="#312F8F"/>
<path d="M927.5 558.5L861 542L905.5 583L927.5 558.5Z" fill="#605DEC"/>
<path d="M42.5987 398.827L353.512 81.4966L795.058 155.351L894.571 550.286L591.138 883.594L156.657 799.18L99.6276 599.004L42.5987 398.827Z" fill="#F5F5F5"/>
<path d="M42.5987 398.827L353.512 81.4966L795.058 155.351M42.5987 398.827L99.6276 599.004L156.657 799.18L591.138 883.594M42.5987 398.827L262.35 446.657L482.102 494.488M591.138 883.594L894.571 550.286L795.058 155.351M591.138 883.594L482.102 494.488M795.058 155.351L482.102 494.488" stroke="#605DEC" stroke-width="60"/>
<path d="M367.5 84L711.5 141M436 485L55 401.5" stroke="#312F8F" stroke-width="60" stroke-linecap="square"/>
<path d="M443 471L560 877.5L174.5 803" stroke="#312F8F" stroke-width="60"/>
<path d="M9.00148 390L32.501 366L18.5019 424L9.00148 390Z" fill="#312F8F"/>
<path d="M364.5 70.5L45 396" stroke="#312F8F" stroke-width="60"/>
<path d="M27.2461 375L79.3277 384.824L70.0818 433.841L18.5 424L27.2461 375Z" fill="#312F8F"/>
<path d="M745.822 116.267L819.501 129L736.001 175.501L745.822 116.267Z" fill="#312F8F"/>
<path d="M169.503 832.496L133.004 824.996L180.502 773.5L169.503 832.496Z" fill="#312F8F"/>
<path d="M806 143.5L505 469.5L615 857L884 562" stroke="#605DEC" stroke-width="60"/>
<path d="M784 123L819.307 129.222L828 164L784 123Z" fill="#605DEC" stroke="#605DEC" stroke-width="0.2"/>
<path d="M808.5 209L890.5 535" stroke="#F5F5F5" stroke-width="60"/>
<path d="M828.5 166.499L837.999 202.001L779.422 216.629L828.5 166.499Z" fill="#F5F5F5"/>
<path d="M917.332 518.429L927.435 558.339L861 542.475L917.332 518.429Z" fill="#F5F5F5"/>
</svg>
