<svg width="24" height="24" viewBox="0 0 24 24" fill="none" xmlns="http://www.w3.org/2000/svg">
<path d="M12.0142 2.99805C6.5162 2.99805 2.01419 6.99904 2.01419 11.998C2.01419 13.621 2.49819 15.193 3.38919 16.56C3.53119 16.779 3.65521 17.274 3.57621 17.748C3.49621 18.238 3.24019 18.717 2.73319 18.998C2.57519 19.086 2.01919 19.33 2.01419 19.998C2.00919 20.666 2.58519 20.995 3.01419 20.998C4.0292 21.006 10.2672 20.998 12.0142 20.998C17.5122 20.998 22.0142 16.997 22.0142 11.998C22.0142 6.99904 17.5122 2.99805 12.0142 2.99805ZM9.5142 9.99804C10.2462 9.99904 10.8622 10.496 11.0142 11.436C11.2412 12.839 10.9282 13.817 10.1392 14.81C9.9672 15.027 9.66119 15.053 9.45219 14.873C9.24219 14.693 9.2092 14.364 9.3892 14.154C9.7012 13.79 9.92121 13.411 10.0452 12.904C9.85221 12.981 9.6502 12.998 9.5142 12.998C8.6852 12.998 8.0142 12.326 8.0142 11.498C8.0142 10.67 8.6862 9.99704 9.5142 9.99804ZM14.5142 9.99804C15.2462 9.99904 15.8622 10.496 16.0142 11.436C16.2412 12.839 15.9282 13.817 15.1392 14.81C14.9672 15.027 14.6612 15.053 14.4522 14.873C14.2422 14.693 14.2092 14.364 14.3892 14.154C14.7012 13.79 14.9212 13.411 15.0452 12.904C14.8522 12.981 14.6502 12.998 14.5142 12.998C13.6852 12.998 13.0142 12.326 13.0142 11.498C13.0142 10.67 13.6862 9.99704 14.5142 9.99804Z" fill="white"/>
</svg>
