<svg width="20" height="18" viewBox="0 0 20 18" fill="none" xmlns="http://www.w3.org/2000/svg">
<path d="M2.01601 5.67315C3.34601 5.21115 17.469 0.38916 18.189 0.14016C18.469 0.04316 18.75 -0.0118405 19.008 0.00215948C19.244 0.0151595 19.461 0.0861612 19.642 0.235161C19.907 0.453161 19.991 0.722155 19.998 1.01015C20.005 1.27415 19.948 1.55515 19.906 1.82915C19.74 2.92115 18.156 15.2141 18.026 16.0311C17.873 16.9971 17.224 18.0172 16.028 17.9982C15.42 17.9882 14.955 17.8482 14.216 17.1162C13.095 16.0052 10.682 13.4442 9.58901 12.2222C9.04601 11.6142 9.09102 10.7712 9.51302 10.2872C9.78702 9.97316 11.926 7.88217 12.916 6.83217C13.133 6.60217 13.004 6.25316 12.885 6.13216C12.77 6.01516 12.446 5.93715 12.252 6.09215C10.874 7.19315 8.09201 9.27115 7.72301 9.51815C7.27701 9.81715 6.58701 9.93815 6.01101 9.82515C5.43501 9.71215 1.16201 8.97615 1.16201 8.97615C0.727008 8.89615 0.00602051 8.42015 2.05066e-05 7.47115C-0.00497949 6.47815 0.905012 6.05915 2.01601 5.67315Z" fill="#605DEC"/>
</svg>
